<?xml version="1.0" encoding="utf-8"?><svg viewBox="0 0 18 18" xmlns="http://www.w3.org/2000/svg" xmlns:xlink="http://www.w3.org/1999/xlink"><style>:root>svg{display:none}:root>svg:target{display:block}</style><svg fill="none" viewBox="0 0 18 18" id="Vector" xmlns="http://www.w3.org/2000/svg"><path d="M11.672 13.148a.703.703 0 00-.703.704 2.745 2.745 0 01-2.742 2.742 2.745 2.745 0 01-2.743-2.742V11.83l2.5-3.627a.714.714 0 00.042-.07 4.54 4.54 0 00.14-.136c.9-.915 1.396-2.195 1.396-3.603v-2.76C9.563.733 8.83 0 7.928 0H6.609a.703.703 0 00-.703.703v.703a.703.703 0 101.407 0h.615c.126 0 .228.103.228.228V4.428c-.015 2.06-1.43 3.552-3.375 3.552-1.955 0-3.375-1.508-3.375-3.585a.724.724 0 00-.003-.065.676.676 0 00.003-.065v-2.63c0-.126.103-.229.229-.229h.58a.703.703 0 001.406-.035V.703A.703.703 0 002.918 0H1.635C.733 0 0 .733 0 1.635v2.63c0 .022.001.043.003.065A.727.727 0 000 4.395c0 1.408.496 2.688 1.396 3.603l.086.085c.018.041.04.082.067.12l2.53 3.671v1.978A4.153 4.153 0 008.226 18a4.153 4.153 0 004.148-4.148.703.703 0 00-.703-.704zm-6.89-3.761c.241 0 .48-.017.714-.051l-.73 1.059-.733-1.064c.245.037.495.056.748.056zm11.812-1.848V2.813A2.816 2.816 0 0013.78 0a2.816 2.816 0 00-2.812 2.813v7.523a.703.703 0 101.406 0V2.812c0-.775.63-1.406 1.406-1.406.776 0 1.406.631 1.406 1.407v4.726a2.113 2.113 0 00-1.406 1.988c0 1.164.946 2.11 2.11 2.11 1.163 0 2.109-.947 2.109-2.11 0-.916-.588-1.698-1.406-1.988zm-.703 2.691a.704.704 0 11.001-1.407.704.704 0 01-.001 1.407z" fill="#fff"/></svg><svg viewBox="0 0 18 18" id="book_1" xmlns="http://www.w3.org/2000/svg"><g clip-path="url(#bclip0)"><path d="M17.297 7.805A.703.703 0 0018 7.102V1.758a.703.703 0 00-.897-.676c-.815.234-1.853.168-3.167.084-.823-.052-1.755-.111-2.827-.111-.839 0-1.593.37-2.109.955a2.806 2.806 0 00-2.11-.955c-1.07 0-2.003.059-2.826.111-1.314.084-2.352.15-3.167-.084A.703.703 0 000 1.758v11.664c-.002.753.29 1.461.821 1.994a2.794 2.794 0 001.992.826h5.484a.703.703 0 001.406 0h5.485A2.816 2.816 0 0018 13.43v-2.813a.703.703 0 00-1.406 0c0 .776-.631 1.406-1.407 1.406h-5.132c-.12 0-.238.013-.352.036V3.867c0-.775.631-1.406 1.406-1.406 1.027 0 1.936.058 2.738.109 1.049.066 1.938.123 2.747.035v4.497c0 .388.314.703.703.703zm-9 7.031H2.813c-.377 0-.73-.147-.996-.413a1.398 1.398 0 01-.41-.999v-.373c.413.24.893.379 1.406.379h5.132c.194 0 .352.157.352.351v1.055zm0-2.777a1.763 1.763 0 00-.352-.035H2.813c-.776 0-1.407-.631-1.407-1.407V2.605c.809.088 1.698.031 2.747-.035.802-.051 1.711-.109 2.738-.109.775 0 1.406.63 1.406 1.406v8.192zm1.758 1.37h5.133c.512 0 .992-.138 1.406-.378v.379c0 .775-.631 1.406-1.407 1.406H9.704v-1.055c0-.194.158-.351.352-.351z" fill="#fff"/></g><defs><clipPath id="bclip0"><path d="M0 0h18v18H0z"/></clipPath></defs></svg><svg viewBox="0 0 18 18" id="heart" xmlns="http://www.w3.org/2000/svg"><g clip-path="url(#cclip0)"><path d="M18 5.951c0 2.462-1.753 4.525-3.071 5.863a.701.701 0 01-.995.007.703.703 0 01-.007-.994c1.82-1.846 2.667-3.396 2.667-4.876 0-2.18-1.417-3.701-3.446-3.701-1.319 0-2.293.496-2.894 1.475A4.09 4.09 0 009.7 5.318.702.702 0 019 5.966a.704.704 0 01-.701-.65c0-.006-.075-.814-.553-1.591-.601-.979-1.575-1.475-2.894-1.475-2.029 0-3.446 1.522-3.446 3.701 0 .983.373 1.993 1.139 3.084h1.669L5.38 6.652a.703.703 0 011.274.022l1.436 3.22.915-1.809a.703.703 0 01.622-.386h.006c.26 0 .5.145.622.376l.505.96h1.58a.703.703 0 110 1.406h-2.004a.703.703 0 01-.622-.375l-.069-.13-.967 1.912a.703.703 0 01-.627.386h-.017a.703.703 0 01-.625-.416L5.982 8.62l-.698 1.426a.703.703 0 01-.632.394H.703a.703.703 0 110-1.406h.178C.29 7.99 0 6.972 0 5.951c0-1.493.49-2.78 1.418-3.718.884-.896 2.104-1.39 3.434-1.39 2.325 0 3.527 1.197 4.126 2.2L9 3.082l.022-.037c.6-1.004 1.801-2.2 4.126-2.2 1.33 0 2.55.493 3.434 1.389C17.51 3.172 18 4.458 18 5.95zm-6.546 7.153l-.016.014c-.894.784-1.748 1.534-2.438 2.269-.69-.735-1.545-1.485-2.438-2.27-.476-.417-.968-.848-1.446-1.287a.703.703 0 10-.951 1.035c.489.45.987.887 1.47 1.31 1.1.966 2.141 1.879 2.817 2.719l.003.003a.732.732 0 00.05.054v.002a.695.695 0 00.053.047h.001l.001.002a.664.664 0 00.048.035l.003.002.048.029.003.002a.652.652 0 00.048.024l.012.005a.658.658 0 00.04.016.733.733 0 00.056.018.597.597 0 00.056.012l.015.002a.85.85 0 00.045.006l.016.001a.647.647 0 00.048.002h.004a.703.703 0 00.109-.009l.015-.002a.628.628 0 00.101-.026l.011-.005a.633.633 0 00.154-.077.628.628 0 00.048-.035L9.441 17l.002-.002a.717.717 0 00.051-.046l.003-.002a.713.713 0 00.039-.043l.01-.011.002-.003c.676-.84 1.716-1.753 2.818-2.719l.016-.014a.703.703 0 10-.928-1.057z" fill="#fff"/></g><defs><clipPath id="cclip0"><path fill="#fff" d="M0 0h18v18H0z"/></clipPath></defs></svg><svg fill="none" viewBox="0 0 18 18" id="speak" xmlns="http://www.w3.org/2000/svg"><g clip-path="url(#dclip0)"><path d="M16.472 10.778a.703.703 0 10-1.304.527l.828 2.049-2.46-1.085a.702.702 0 00-.559-.003c-.84.358-1.741.54-2.676.54-3.765 0-6.293-2.947-6.293-5.7 0-3.143 2.823-5.7 6.293-5.7s6.293 2.557 6.293 5.7c0 .245-.023.54-.063.806a.703.703 0 001.39.207c.051-.337.079-.697.079-1.013 0-1.91-.809-3.702-2.278-5.046C14.271.732 12.346 0 10.301 0 8.256 0 6.33.732 4.879 2.06 3.567 3.26 2.782 4.82 2.63 6.5.98 7.595 0 9.346 0 11.233c0 1.179.372 2.297 1.08 3.26L.05 17.033a.703.703 0 00.936.907l2.96-1.305a6.691 6.691 0 002.346.418l.052-.003a6.656 6.656 0 003.308-.897 6.053 6.053 0 002.127-2.071c.5-.09.987-.225 1.46-.406l3.773 1.663a.702.702 0 00.936-.907l-1.477-3.654zm-10.18 4.867h-.028a5.272 5.272 0 01-2.054-.42.703.703 0 00-.56.004l-1.646.726.531-1.314a.703.703 0 00-.117-.72c-.662-.776-1.012-1.706-1.012-2.688 0-1.123.473-2.188 1.3-2.995.257 1.403.984 2.746 2.08 3.8 1.364 1.313 3.167 2.074 5.115 2.165-.914.9-2.223 1.442-3.608 1.442zM11.32 7.77a.703.703 0 110 1.406H7.101a.703.703 0 110-1.406h4.22zm2.11-1.407H7.1a.703.703 0 110-1.406h6.329a.703.703 0 110 1.406z" fill="#fff"/></g><defs><clipPath id="dclip0"><path fill="#fff" d="M0 0h18v18H0z"/></clipPath></defs></svg><svg fill="none" viewBox="0 0 18 18" id="test_1" xmlns="http://www.w3.org/2000/svg"><path d="M12.623 13.113h-2.074a.703.703 0 000 1.407h2.074a.703.703 0 100-1.407zM12.623 8.86h-2.074a.703.703 0 000 1.406h2.074a.703.703 0 100-1.407z" fill="#fff"/><path d="M15.432 12.375a.703.703 0 00.703-.703v-8.86A2.816 2.816 0 0013.322 0H4.678a2.816 2.816 0 00-2.813 2.813v12.374A2.816 2.816 0 004.678 18h8.644a2.816 2.816 0 002.813-2.813.703.703 0 00-1.407 0c0 .776-.63 1.407-1.406 1.407H4.678c-.776 0-1.407-.631-1.407-1.407V2.813c0-.776.631-1.407 1.407-1.407h8.644c.776 0 1.407.631 1.407 1.407v8.859c0 .388.314.703.703.703z" fill="#fff"/><path d="M8.993 2.798a.703.703 0 00-.99.094L6.484 4.73l-.6-.615a.703.703 0 00-1.007.981l.754.775a1.228 1.228 0 001.815-.097l1.641-1.986a.703.703 0 00-.094-.99zM8.993 11.371a.703.703 0 00-.99.095l-1.52 1.839-.6-.613a.703.703 0 10-1.005.983l.755.77a1.228 1.228 0 001.813-.098l1.64-1.986a.703.703 0 00-.093-.99zM12.623 4.535h-2.074a.703.703 0 000 1.406h2.074a.703.703 0 100-1.406zM8.993 7.118a.703.703 0 00-.99.094L6.483 9.05l-.6-.613a.703.703 0 00-1.005.984l.755.77a1.228 1.228 0 001.813-.098l1.64-1.986a.703.703 0 00-.093-.99z" fill="#fff"/></svg><svg fill="none" viewBox="0 0 18 18" id="test_1_(1)" xmlns="http://www.w3.org/2000/svg"><path d="M12.623 13.113h-2.074a.703.703 0 000 1.407h2.074a.703.703 0 100-1.407zM12.623 8.86h-2.074a.703.703 0 000 1.406h2.074a.703.703 0 100-1.407z" fill="#fff"/><path d="M15.432 12.375a.703.703 0 00.703-.703v-8.86A2.816 2.816 0 0013.322 0H4.678a2.816 2.816 0 00-2.813 2.813v12.374A2.816 2.816 0 004.678 18h8.644a2.816 2.816 0 002.813-2.813.703.703 0 00-1.407 0c0 .776-.63 1.407-1.406 1.407H4.678c-.776 0-1.407-.631-1.407-1.407V2.813c0-.776.631-1.407 1.407-1.407h8.644c.776 0 1.407.631 1.407 1.407v8.859c0 .388.314.703.703.703z" fill="#fff"/><path d="M8.993 2.798a.703.703 0 00-.99.094L6.484 4.73l-.6-.615a.703.703 0 00-1.007.981l.754.775a1.228 1.228 0 001.815-.097l1.641-1.986a.703.703 0 00-.094-.99zM8.993 11.371a.703.703 0 00-.99.095l-1.52 1.839-.6-.613a.703.703 0 10-1.005.983l.755.77a1.228 1.228 0 001.813-.098l1.64-1.986a.703.703 0 00-.093-.99zM12.623 4.535h-2.074a.703.703 0 000 1.406h2.074a.703.703 0 100-1.406zM8.993 7.118a.703.703 0 00-.99.094L6.483 9.05l-.6-.613a.703.703 0 00-1.005.984l.755.77a1.228 1.228 0 001.813-.098l1.64-1.986a.703.703 0 00-.093-.99z" fill="#fff"/></svg></svg>